{
	"asset":{
		"generator":"Khronos glTF Blender I/O v4.2.57",
		"version":"2.0"
	},
	"scene":0,
	"scenes":[
		{
			"name":"Scene",
			"nodes":[
				0,
				1,
				2
			]
		}
	],
	"nodes":[
		{
			"mesh":0,
			"name":"MeshInstance3D"
		},
		{
			"name":"CollisionShape3D32",
			"translation":[
				0.0007580816745758057,
				0,
				-0.0001323223114013672
			]
		},
		{
			"name":"CollisionShape3D33",
			"translation":[
				0.0007580816745758057,
				0,
				-0.0001323223114013672
			]
		}
	],
	"meshes":[
		{
			"name":"Mesh_0",
			"primitives":[
				{
					"attributes":{
						"POSITION":0,
						"NORMAL":1,
						"TEXCOORD_0":2
					},
					"indices":3
				}
			]
		}
	],
	"accessors":[
		{
			"bufferView":0,
			"componentType":5126,
			"count":422,
			"max":[
				0.4449903070926666,
				0.1339796632528305,
				0.18535096943378448
			],
			"min":[
				-0.44499027729034424,
				-0.1401558220386505,
				-0.18535096943378448
			],
			"type":"VEC3"
		},
		{
			"bufferView":1,
			"componentType":5126,
			"count":422,
			"type":"VEC3"
		},
		{
			"bufferView":2,
			"componentType":5126,
			"count":422,
			"type":"VEC2"
		},
		{
			"bufferView":3,
			"componentType":5123,
			"count":1320,
			"type":"SCALAR"
		}
	],
	"bufferViews":[
		{
			"buffer":0,
			"byteLength":5064,
			"byteOffset":0,
			"target":34962
		},
		{
			"buffer":0,
			"byteLength":5064,
			"byteOffset":5064,
			"target":34962
		},
		{
			"buffer":0,
			"byteLength":3376,
			"byteOffset":10128,
			"target":34962
		},
		{
			"buffer":0,
			"byteLength":2640,
			"byteOffset":13504,
			"target":34963
		}
	],
	"buffers":[
		{
			"byteLength":16144,
			"uri":"snow_block_wide.bin"
		}
	]
}
