{
  "asset": {
    "generator": "Khronos glTF Blender I/O v4.2.57",
    "version": "2.0"
  },
  "scene": 0,
  "scenes": [
    {
      "name": "Scene",
      "nodes": [
        0
      ]
    }
  ],
  "nodes": [
    {
      "mesh": 0,
      "name": "Cylinder.008",
      "rotation": [
        -0.02208811044692993,
        -0.4106285572052002,
        -0.048961564898490906,
        0.9102192521095276
      ],
      "scale": [
        0.2814997136592865,
        0.2814996838569641,
        0.2814996838569641
      ]
    }
  ],
  "materials": [
    {
      "doubleSided": true,
      "name": "Material.001",
      "pbrMetallicRoughness": {
        "baseColorTexture": {
          "index": 0
        },
        "metallicFactor": 0
      }
    }
  ],
  "meshes": [
    {
      "name": "Cylinder.013",
      "primitives": [
        {
          "attributes": {
            "POSITION": 0,
            "NORMAL": 1,
            "TEXCOORD_0": 2
          },
          "indices": 3,
          "material": 0
        }
      ]
    }
  ],
  "textures": [
    {
      "sampler": 0,
      "source": 0
    }
  ],
  "images": [
    {
      "name": "A color pallet",
      "uri": "../color_pallet.png"
    }
  ],
  "accessors": [
    {
      "bufferView": 0,
      "componentType": 5126,
      "count": 460,
      "max": [
        3.359661102294922,
        11.89310073852539,
        4.594062805175781
      ],
      "min": [
        -4.519878387451172,
        -0.11516952514648438,
        -3.280125617980957
      ],
      "type": "VEC3"
    },
    {
      "bufferView": 1,
      "componentType": 5126,
      "count": 460,
      "type": "VEC3"
    },
    {
      "bufferView": 2,
      "componentType": 5126,
      "count": 460,
      "type": "VEC2"
    },
    {
      "bufferView": 3,
      "componentType": 5123,
      "count": 2124,
      "type": "SCALAR"
    }
  ],
  "bufferViews": [
    {
      "buffer": 0,
      "byteLength": 5520,
      "byteOffset": 0,
      "target": 34962
    },
    {
      "buffer": 0,
      "byteLength": 5520,
      "byteOffset": 5520,
      "target": 34962
    },
    {
      "buffer": 0,
      "byteLength": 3680,
      "byteOffset": 11040,
      "target": 34962
    },
    {
      "buffer": 0,
      "byteLength": 4248,
      "byteOffset": 14720,
      "target": 34963
    }
  ],
  "samplers": [
    {
      "magFilter": 9729,
      "minFilter": 9987
    }
  ],
  "buffers": [
    {
      "uri": "tree1_data.bin",
      "byteLength": 18968
    }
  ]
}